<svg id="Capa_1" xmlns="http://www.w3.org/2000/svg" viewBox="0 0 320 1136"><style>.st0{opacity:.7;fill-rule:evenodd;clip-rule:evenodd;fill:#323232}</style><path id="XMLID_187_" class="st0" d="M306.8 1001.2l-3.2-16.3-2.2-20.4 4.3-.7-.8-11.8-23.4-704c-.1-1.8-.1-3.6-.2-5.2v-.4c-.6-16.9-9-51.8-62.9-80-.9-.6-1.7-1.2-2.7-1.7l-22.5-13.2c-7.8-4.6-13.1-11.8-14.8-19.9l-.9-4.6c-.5-2.2.2-4.5 1.8-6.2l2.6-3c2-2.2 3.1-5 3.1-7.8v-1.4c0-.5.4-.3.8-.3 0 1 2.6 1.6 2.7.1l.9-11.2c.1-1.1-1.3-1.9-2.4-1.2l-1 .6c-.5.3-1.1 0-1.1-.5v-1.5c0-12.8-11.9-23.2-26.4-23.2C144 67 132 77.4 132 90.2v1.5c0 .5-.5.8-1 .5l-.9-.6c-1.1-.7-2.5.1-2.4 1.2l.8 10.1c.1 1.2 1.7 1.8 2.7.9h-.1c.4-.3.8-.1.8.4v.8c0 3.3 1.6 6.4 4.1 8.8l2.7 2.5c2 1.9 2.9 4.6 2.2 7.2l-1.3 4.9c-2 7.6-7.2 14.2-14.6 18.5l-23.1 13.5c-.1.1-.3.2-.4.3-.7.4-1.5.9-2.1 1.4l-.5.3c-54.8 38.5-60.2 65.6-60.5 80.4-.1 2.6 0 4.1 0 4.1L15 953.8l-.7 10 4.3.7-2.2 20.4-3.2 16.3c-.4 2.3-.2 4.6.7 6.8l2.2 5.4c1.5 3.6 4.6 6.2 8.4 7.1l2.1.5c4.9 1.1 10.1-.1 14-3.3l.4-.3v118.7h93.3l6.4-75.1c.9-10.1 9.3-17.9 19.4-17.9 10.1 0 18.6 7.8 19.4 17.9l6.4 75.1h93.3v-118.7l.2.2c3.9 3.2 9.1 4.5 14 3.4l2.1-.5c3.8-.9 6.9-3.5 8.4-7.1l2.2-5.4c.9-2.2 1.1-4.5.7-6.8zm-265.8.7l-4.3-15.7c-.1-.5-.2-1-.2-1.5l.2-17 4.3.8v33.4zm242.3-15.8l-4 14.6c.1-9.2.1-20.2.2-32.4l3.8-.7.2 17c0 .6 0 1.1-.2 1.5z"/></svg>