<svg id="Capa_1" xmlns="http://www.w3.org/2000/svg" viewBox="0 0 1440 1800"><style>.st0{opacity:.7;fill:#323232}</style><path id="XMLID_34_" class="st0" d="M1243.7 1517.2l-11.2-57.7-7.9-72.1 15.2-2.4-34-485h.1l-3.3-47.7c-.2-7.5-.4-14.8-.6-21.5 0-.5 0-1.2-.1-1.7-2.3-69.6-35.4-212.8-247.4-328.9-3.3-2.5-6.8-4.9-10.4-7.1l-88.3-54.4c-30.6-18.8-51.6-48.4-58.1-81.8l-3.7-19c-1.8-9 .7-18.4 6.8-25.6L811 300c7.7-9.2 12-20.6 12-32.2v-5.9c0-1.9 2.1-1.9 3.6-.9h.1c0 6 10 6.2 10.5 0l3.6-45.9c.4-4.7-5.3-7.8-9.5-5.2l-3.9 2.4c-1.9 1.2-4.4-.1-4.4-2.2v-6.3c0-52.7-46.5-94.8-103.5-94.8h-.1c-57 0-102.4 42.2-102.4 94.8v6.3c0 2.1-2.9 3.4-4.8 2.2l-4.1-2.5c-4.2-2.7-10 .4-9.6 5.1l3.2 41.5c.4 5 6.9 7.3 10.8 3.9h.3c1.5-1.3 4.1-.3 4.1 1.5v3.1c0 13.4 5.2 26.2 15.1 36l10.1 10.1c8 7.9 11.1 19 8.5 29.5l-5.1 20.1c-7.8 31.2-28.3 58.4-57.3 76.1l-90.6 55.5c-.6.3-.7.3-1.7 1.3v.2-.3c-2.9 1.8-5.7 3.6-8.4 5.6l-2 1.3C270 658.4 249 769.6 247.6 830.7c-.3 10.9.1 17.2.1 17.2l-3.6 52.1h.1l-34 485 15.2 2.5-7.9 72.1-11.2 57.6c-1.6 8.1-.7 16.4 2.4 24l7.8 19.1c5.2 12.7 16.3 22 29.6 25l7.4 1.7c17.5 3.9 36.1-.4 49.9-11.8l1.6-1.1v14.2l-.6 211.7h346.2l6.1-72c3-35.6 32.9-63.1 68.6-63.1 35.8 0 65.6 27.5 68.6 63.1l6.1 72h346.2v-211h-.1c0-4 .1-9.1.1-14l.5.3c13.8 11.4 32.2 15.6 49.6 11.7l7.4-1.7c13.4-3 24.4-12.4 29.6-25l7.8-19.1c3.4-7.6 4.2-16 2.6-24zm-938.7 2.3l-15.6-55.7c-.5-1.7-.8-3.4-.8-5.1l.8-60.3 15.6 2.7v118.4zm855.9-55.7l-14.1 51.5c.2-32.7.4-71.3.7-114.6l13.5-2.3.6 60.3c0 1.7-.3 3.5-.7 5.1z"/></svg>