<svg id="Capa_1" xmlns="http://www.w3.org/2000/svg" viewBox="0 0 580 1164.3"><style>.st0{fill:#8a8a8a}.st1{fill:#fff}</style><path class="st0" d="M354.5 346.9c-1.2-26.6 10.1-26.6 8.7-53.3-1.4-26.6-12.3-26.6-13.6-53.3-1.2-26.6 9.2-26.6 7.8-53.3-1.4-26.6-11.4-26.6-12.7-53.3-1.2-26.6 8.3-26.6 6.9-53.3-1.4-26.6-10.5-26.6-11.8-53.3h-39c1.2 26.6 10.3 26.6 11.8 53.3 1.4 26.6-8.1 26.6-6.9 53.3 1.2 26.6 11.2 26.6 12.7 53.3 1.4 26.6-9 26.6-7.8 53.3 1.2 26.6 12.1 26.6 13.6 53.3 1.4 26.6-9.9 26.6-8.7 53.3 1.2 26.6 13 26.6 14.5 53.3h39c-1.4-26.7-13.2-26.7-14.5-53.3z"/><path class="st1" d="M324.3 293.6c-1.4-26.6-12.3-26.6-13.6-53.3-1.2-26.6 9.2-26.6 7.8-53.3-1.4-26.6-11.4-26.6-12.7-53.3-1.2-26.6 8.3-26.6 6.9-53.3-1.4-26.6-10.5-26.6-11.8-53.3h-56.6c-1.2 26.6-10.3 26.6-11.7 53.3-1.4 26.6 8.1 26.6 6.9 53.3-1.2 26.6-11.2 26.6-12.6 53.3-1.4 26.6 9 26.6 7.8 53.3-1.2 26.6-12.1 26.6-13.5 53.3-1.4 26.6 9.9 26.6 8.7 53.3-1.2 26.6-13 26.6-14.4 53.3H330c-1.4-26.6-13.2-26.6-14.5-53.3-1.2-26.7 10.2-26.7 8.8-53.3z"/><path class="st0" d="M292.6 349.2l2.1 19.4c5.2 47.8 3 95.8-6.5 141.1l-7.1 33.7c-6.4 30.6-6.3 63.6.5 95.3l16.8 78.9c6 28.3 6.8 57.6 2.3 85.4l-12.1 74.9c-5.2 32.4-3.3 66.8 5.6 99.1 7.6 27.4 10.2 56.5 7.5 84.7l-9.8 102.6v.1l20.8-100.9c5.7-27.7 6.3-56.9 1.8-85-5.4-33-3.6-67.4 5.2-99.1l20.2-73.1c7.5-27.2 9.9-56.4 7-85.2l-8.1-80.3c-3.3-32.2.2-65 9.9-94.7l10.7-32.7c14.3-43.9 21.7-91.5 21.7-139.5v-24.5h-88.5z"/><path class="st1" d="M294.2 976.9c-8.9-32.2-10.9-66.6-5.6-99.1l12.1-74.9c4.5-27.8 3.7-57.2-2.3-85.4l-16.8-78.9c-6.7-31.7-6.9-64.6-.5-95.3l7.1-33.7c9.5-45.2 11.7-93.3 6.5-141.1l-2.1-19.4h-89.2l5.1 23c10.2 46 13.3 94.4 8.9 142.1l-3.3 35.5c-3 32.3.8 65 10.7 94.6l24.9 73.7c8.9 26.4 12.8 55.3 11.4 84.3l-3.7 77.9c-1.6 33.7 4 67.4 16.2 96.9 10.4 25.1 16 53.3 16.4 82.1l1.8 105.7.1-.7 9.8-102.6c2.7-28.2.1-57.2-7.5-84.7z"/><path class="st0" d="M292 281.2c-49.6 0-92.9 26.9-116.1 67H408c-23.1-40.1-66.4-67-116-67z"/><path class="st1" d="M292.2 0c-20.4 0-47.8 10.7-47.8 27.4H340C340 11.6 312.6 0 292.2 0zm67.4 370.2H226.4c-32.8 0-65.6-7.8-94.9-22.7-23.7-12-50.3-18.3-76.9-18.3H31c-11 0-20-9-20-20s9-20 20-20h23.6c32.8 0 65.6 7.8 94.9 22.7 23.7 12 50.3 18.3 76.9 18.3h133.2c26.6 0 53.2-6.3 76.9-18.3 29.3-14.8 62.1-22.7 94.9-22.7H555c11 0 20 9 20 20s-9 20-20 20h-23.6c-26.6 0-53.2 6.3-76.9 18.3-29.2 14.8-62.1 22.7-94.9 22.7z"/></svg>