<svg width="158" height="218" viewBox="0 0 158 218" xmlns="http://www.w3.org/2000/svg"><title>Group 3</title><g fill="none" fill-rule="evenodd"><path fill="#FFF5ED" d="M0 0h158v218H0z"/><path d="M125 105.369c0-13.019-8.607-24.437-21.54-30.852-5.296-2.627-7.173-9.208-4.141-14.289.852-1.43 1.698-3.599 2.284-5.438a.743.743 0 0 1 1.23-.305c.135.133.236.232.252.245l.003.003c.698.61 1.849.196 1.919-.69l.58-7.381c.067-.839-.944-1.376-1.694-.901l-.7.443c-.245.155-.56.333-.702-.12C101.379 34.254 91.439 25.001 79.336 25c-12.103 0-22.043 9.254-23.155 21.084-.142.453-.457.275-.702.12l-.7-.443c-.75-.475-1.76.062-1.695.901l.581 7.381c.07.886 1.22 1.3 1.919.69l.003-.003c.015-.013.117-.112.253-.245a.744.744 0 0 1 1.229.305c.586 1.84 1.432 4.009 2.284 5.438 3.032 5.08 1.155 11.662-4.142 14.289-12.933 6.415-21.54 17.833-21.54 30.852 0 2.408 11.95 78.647 11.95 78.647S49.795 192 79.336 192c27.922 0 33.715-7.984 33.715-7.984S125 107.777 125 105.369" fill="#323232"/><path d="M131.5 106.32c0 7.323-23.505 13.258-52.5 13.258s-52.5-5.935-52.5-13.257" stroke="#FFF5ED" stroke-width="1.5"/></g></svg>