<svg width="158" height="218" viewBox="0 0 158 218" xmlns="http://www.w3.org/2000/svg"><title>Group 5</title><g fill="none" fill-rule="evenodd"><path fill="#FFF5ED" d="M0 0h158v218H0z"/><path d="M111.478 82.406H95.304a21.573 21.573 0 0 0-4.622-3.929c.02-.387.022-.815-.004-1.3-.23-4.275-1.976-4.275-2.17-8.55-.195-4.275 1.48-4.275 1.25-8.55-.23-4.276-1.833-4.276-2.027-8.55-.194-4.276 1.337-4.276 1.107-8.551-.23-4.275-1.69-4.275-1.883-8.55h.002a8.822 8.822 0 0 0-15.297 0h-.002c-.192 4.275-1.65 4.275-1.878 8.55-.228 4.275 1.303 4.275 1.111 8.55-.192 4.275-1.794 4.275-2.022 8.55-.228 4.276 1.447 4.276 1.255 8.551-.192 4.275-1.938 4.275-2.165 8.55-.025.462-.024.871-.007 1.244a21.571 21.571 0 0 0-4.714 3.985H45.522A3.526 3.526 0 0 0 42 85.936c0 1.95 1.577 3.53 3.522 3.53h20.313l.07.318c1.638 7.383 2.122 15.15 1.422 22.801l-.521 5.699c-.474 5.177.12 10.432 1.717 15.176l3.978 11.824c1.424 4.233 2.054 8.88 1.832 13.524l-.596 12.503c-.258 5.413.64 10.813 2.587 15.548 1.658 4.032 2.56 8.556 2.627 13.173l.28 16.968.023-.108 1.566-16.47-1.565 16.458-.001.012 3.337-16.194a37.97 37.97 0 0 0 .283-13.644c-.859-5.298-.572-10.82.824-15.902l3.226-11.736c1.199-4.36 1.583-9.055 1.118-13.667l-1.297-12.883c-.521-5.168.025-10.432 1.578-15.203l1.712-5.251c2.296-7.051 3.484-14.677 3.484-22.388v-.558h17.96a3.526 3.526 0 0 0 3.521-3.53c0-1.95-1.577-3.53-3.522-3.53" fill="#FFB000"/></g></svg>