<svg width="158" height="218" viewBox="0 0 158 218" xmlns="http://www.w3.org/2000/svg"><title>Group 6</title><g fill="none" fill-rule="evenodd"><path fill="#FFF5ED" d="M0 0h158v218H0z"/><path d="M100.413 110.597l7.454 14.032c-4.65-3.549-8.31-4.574-8.888-4.72l1.434-9.312zm-40.198 9.623c-1.63.582-5.023 2.03-9.052 5.09l7.106-15.898 1.946 10.808zm68.773 46.134c-2.306-13.748-6.41-23.488-10.859-30.37a3.717 3.717 0 0 0 1.763-2.426 3.762 3.762 0 0 0-1.823-4.095c.187-.35.244-.768.126-1.172l-11.54-38.317a4.162 4.162 0 0 0 1.034-1.232c.542-.982.65-2.09.395-3.1a4.144 4.144 0 0 0 1.04-1.237c1.112-2.015.413-4.568-1.562-5.703a4.02 4.02 0 0 0-2.393-.52 4.1 4.1 0 0 0-1.142-.977c-1.976-1.135-4.479-.422-5.591 1.593-.07.125-.131.252-.187.38-2.91-1.174-6.998-2.258-12.597-2.703a14.493 14.493 0 0 0 1.665-.839l9.133 2.095c1.664.381 3.079-1.273 2.482-2.903a6.856 6.856 0 0 1-.256-3.83l.637-2.891a6.817 6.817 0 0 0-1.782-6.245 6.799 6.799 0 0 1-1.941-4.911l.001-.068c.099-4.788-3.122-8.984-7.702-10.034l-3.295-.756-3.693-.847c-4.58-1.05-9.252 1.336-11.172 5.705l-.028.063a6.65 6.65 0 0 1-3.815 3.59c-2.137.773-3.735 2.61-4.232 4.866l-.637 2.891a6.765 6.765 0 0 1-1.839 3.35c-1.223 1.212-.638 3.325 1.025 3.707l7.837 1.808c1.457 2.15 3.695 3.912 5.834 5.042v.285c-6.416.635-11.393 2.2-14.801 3.657-.074-.483-.202-.961-.45-1.412-1.113-2.015-3.604-2.728-5.58-1.593-.45.259-.825.594-1.136.978a4.01 4.01 0 0 0-2.39.519c-1.975 1.135-2.673 3.688-1.56 5.703.272.493.63.907 1.04 1.236a4.243 4.243 0 0 0 .396 3.1 4.104 4.104 0 0 0 2.205 1.888l-10.14 38.275c-.091.411-.006.825.204 1.16a3.771 3.771 0 0 0-1.542 4.214c.181.622.509 1.16.932 1.588-4.848 6.778-9.385 16.314-12.035 29.666-.567 2.853 13.266 6.874 30.81 8.775l.986 14.821c.189 3.673 3.128 6.572 6.733 6.64 3.719.071 6.817-2.89 6.99-6.68l.815-13.753a166.1 166.1 0 0 0 2.034.036c2.454.028 4.914.005 7.354-.063l1.537 14.077c.33 3.662 3.381 6.44 6.986 6.362 3.718-.08 6.699-3.164 6.725-6.958l.116-14.497c16.565-1.729 29.347-5.183 28.885-7.938z" fill="#E64E17"/></g></svg>