<svg width="133" height="38" viewBox="0 0 133 38" xmlns="http://www.w3.org/2000/svg"><title>UN Logo Dark</title><path d="M70.955 18C66.639 18 64 15.341 64 10.126V0h3.535v10.025c0 2.886 1.308 4.38 3.465 4.38 2.158 0 3.466-1.443 3.466-4.253V0H78v10c0 5.367-2.73 8-7.045 8m20.885 0L83.666 6.557V18H80V0h3.424l7.91 11.083V0H95v18zM20.149 38h-3.28L13 26.338 9.132 38h-3.28L0 20.051h4.04l3.55 12.067L11.433 20h3.232l3.843 12.118 3.55-12.067H26zm19.956-9.001c0-2.984-2.129-5.47-5.13-5.47-3 0-5.08 2.436-5.08 5.42v.05c0 2.983 2.13 5.47 5.13 5.47s5.08-2.437 5.08-5.421v-.05zM34.975 38C29.75 38 26 33.996 26 29.048v-.05C26 24.052 29.799 20 35.024 20 40.25 20 44 24.001 44 28.949v.05C44 33.947 40.201 38 34.976 38zm23.309 0V26.247l-4.784 7.69h-.097l-4.736-7.613V38H45V20h4.031l4.469 7.61L57.969 20H62v18zM65 38V20h12.878v3.522H68.73v3.65h8.047v3.524H68.73v3.78H78V38zm26.842 0l-8.177-11.445V38H80V20h3.424l7.91 11.081V20H95v18zM53.783 16.43c-1.134-.547-2.445-1.16-3.772-.64a3.62 3.62 0 0 0-2.213 0c-1.168.564-2.758 1.415-3.991.472.232.296.483.437.749.642.796.547 1.943.492 2.764.05.756-.34 1.333-1.346 2.293-1.03-.815.436-1.563.958-2.24 1.703l.411.373c.595-.837 1.398-1.534 2.26-1.942.836.43 1.598 1.168 2.227 1.908l.411-.373a9.357 9.357 0 0 0-2.226-1.669c.205-.056.457-.041.67-.02.86.4 1.523 1.202 2.498 1.322 1.034.177 1.956-.268 2.592-1.069l-.49.274c-.578.275-1.352.204-1.943 0zm-9.545-3.292c.51.633.53 1.47 1.24 1.99.272.254.636.304.941.437-.338.035-.65-.111-.988-.133-1.14-.148-2.446.007-3.28-.978.377.703 1.046 1.317 1.749 1.555 1.325.534 2.526-.252 3.791-.373-1.471-.07-2.267-1.773-3.453-2.498zm11.501-.085c-.762.528-1.42 1.429-2.115 2.006-.384.31-.842.401-1.292.541.994.079 1.823.578 2.863.508 1.114-.05 2.134-.74 2.658-1.788-.769.971-2.001.914-3.135 1.027-.377.05-.75.17-1.127.17.013-.014.026-.043.046-.036 1.24-.112 1.591-1.541 2.102-2.428zm-5.634-.845l.065.12-.013.894c.246-.098.583-.092.81-.134-.134-.14-.331-.127-.385-.337-.093-.141.04-.289.031-.409-.157-.078-.395.023-.508-.134zm-4.037-.252l-.736.809c1.26 1.196 2.764 1.843 4.454 1.955l-.046-.083c.013-.353-.026-.726.033-1.063l-.013.021a5.222 5.222 0 0 1-3.692-1.64zm7.829-.071a1.977 1.977 0 0 1-.558.541c-.69.255-.755 1.07-1.432 1.339-.265.112-.417-.254-.656-.31-.358.062-.73.168-1.094.104v1.183l.047-.034c1.71-.078 3.255-.797 4.454-1.992-.272-.276-.563-.558-.761-.831zm-6.51-.627c0 .12.153.126.092.275-.225.148-.497.042-.716.219-.2.113-.364-.134-.478-.12.969.886 2.103 1.476 3.408 1.54l.08.05c-.053-.337-.033-.731-.013-1.084-.889.057-1.69-.337-2.374-.88zm-.113-.133l.079.105-.079-.105zm-4.454-.232l.192.52c.185 1.168.272 2.456 1.273 3.195l-.014.015c-.324-.149-.57-.437-.862-.627-.94-.647-2.24-.935-2.77-2.175.145.908.73 1.718 1.43 2.28.843.789 2.017.726 3.044 1.042-.378-.309-.59-.661-.762-1.097-.378-1.106-.71-2.26-1.53-3.153zm10.088-.036v.014c-.497.373.238.387.253.71-.074.155-.339.311-.173.494.053.063-.027.113-.047.17l.683-.613c-.086.063-.192.022-.239-.064.008-.316-.35-.457-.477-.71zm4.249-.084l-.557.774c-.748 1.099-.663 2.598-1.703 3.534.536-.184 1.127-.261 1.683-.387 1.253-.339 2.573-1.648 2.751-3.013-.225.57-.695.992-1.173 1.323-.82.409-1.657.873-2.353 1.52h-.079l.046-.07c1.2-.845.875-2.478 1.385-3.68zm-9.135-.894a5.786 5.786 0 0 1-.714.76h.045c.584.536 1.319.908 2.009 1.028-.252-.035-.351-.296-.464-.492-.066-.164.166-.198.126-.366a.497.497 0 0 1 .384-.254c-.079.014-.16.027-.238.048-.418-.146-.842-.345-1.148-.724zm3.387-.119c-.071.041-.132.041-.17.134-.087.12-.193-.007-.272-.05.026.035.085.12.012.17-.086.097-.166-.044-.251-.071-.047.308-.153-.085-.305-.014-.066-.176-.18.035-.285.014-.08.07-.087.274-.24.253-.032.099-.158.062-.172.134.074.09.173.048.252.034.127-.119.285-.042.431-.063-.013.254.265.063.351.22.1-.008.1-.115.14-.191a.84.84 0 0 0 .53-.339c.027-.062.066-.197-.02-.231zm-.376-.17c.079-.113.252-.091.285-.217-.147-.029-.306.083-.285.218zm-2.055-.759l-.637.76c.364.296.789.527 1.26.605-.007-.134-.007-.267.059-.373.066-.042.166.02.226-.049-.008-.064-.046-.064-.08-.12-.04-.098 0-.19.012-.253.027-.05-.052-.161.035-.198-.206.106-.392-.04-.571-.105-.1-.084-.278-.105-.304-.267zm4.262.013c-.192-.154-.153.14-.319.12-.059-.014-.072-.092-.079-.156-.013.163-.132.282-.219.41-.305-.092-.225.366-.53.267.04.127.173-.02.239.022.053-.03.038-.086.066-.12.034-.134.186-.184.305-.134a.699.699 0 0 1 .08.387c-.073.056-.073.148-.067.24-.093.16-.053.506-.33.47a2.79 2.79 0 0 0-.93-.204v.071c.214.084.45.084.624.253.186-.02.418.029.557-.084a.75.75 0 0 1 .159-.373c.119.013.092.183.145.269.352-.473.656-.923.777-1.5-.173-.014-.299.09-.478.062zm-11.056-.063c.078.464-.06.872-.127 1.295-.226.808-.113 1.76.332 2.42-.146-.076-.239-.26-.332-.42-.55-1.12-1.935-1.754-2.055-3.097-.006.486-.006 1 .132 1.435.386 1.507 1.95 2.28 3.004 3.04-.749-1.371-.352-3.237-.954-4.673zm9.292-.02c-.145.218.14.204.16.386.034 0 .072.015.093-.014-.021-.078-.013-.162-.08-.219-.113 0-.113-.153-.173-.153zm6.317-.12c-.63 1.443-.172 3.356-.94 4.729l.126-.113c1.49-.865 3.287-2.323 2.988-4.45a2.18 2.18 0 0 1-.237.799c-.584.963-1.578 1.75-2.07 2.75-.012.036-.058.057-.078.022l.099-.134c.702-1.077.073-2.4.112-3.604zm-9.147-.134c-.02.099-.093.175-.146.254.093-.043.146-.19.252-.184l-.106-.07zm-1.114-.288l.06.105c.08.351.279.647.444.965l.305-.339c-.007-.04.013-.091-.013-.119-.06-.085-.02-.24-.099-.289-.026.078.059.12.02.183-.1-.043-.206-.091-.259-.218.02-.162-.092-.043-.173-.119-.006-.176-.212-.064-.285-.17zm-2.884-.45l.034.049c.033.506.167.999.205 1.484.06-.042.02-.155.1-.155.027-.238.06-.513.205-.726.212-.006.22-.309.445-.286.052.04.126.098.145.168-.113-.14-.118-.366-.065-.534a3.9 3.9 0 0 1-1.069 0zm-1.398.012a7.696 7.696 0 0 0 1.797 4.695c.245-.274.517-.584.782-.809-.133-.092-.218-.254-.351-.372-.166-.037-.28-.205-.319-.354.007.022-.02.036-.033.048-.153.08-.199-.118-.299-.18-.092-.05-.02-.275-.179-.19-.092-.162-.264-.15-.33-.337l-.067.118c-.12-.006-.204-.163-.272-.24-.244.077-.146-.28-.285-.4a.794.794 0 0 1 .125-.613c.074-.07.213-.014.24.035.127.05.046-.105.113-.134.179-.161.265.065.364.183a4.339 4.339 0 0 1-.218-1.462c-.339.049-.723.034-1.068.012zm2.785-.035c.072.255.152.529.092.81 0-.127.259-.253.053-.365.08-.129.02-.396.171-.41-.117.028-.21.028-.316-.035zm8.26-.015c.038.142-.04.276-.034.423-.14.247.178.31.092.542-.059.05-.12.043-.192.015a4.516 4.516 0 0 1-.955 1.871h-.045c.117.078.204.254.337.289v-.098c.027-.022.04-.07.08-.05.258.086.278.465.299.641.675-.753 1.093-1.646 1.305-2.618.074-.325.033-.718.159-1-.345.023-.722.042-1.047-.015zm1.365-.02l.032.07a6.187 6.187 0 0 1-1.53 3.851c.25.238.536.55.769.808.88-1.076 1.484-2.287 1.696-3.659.073-.352.053-.732.145-1.07-.324.098-.709.035-1.066.058l-.046-.058zm-2.374-.014l.178.218c-.005.247.313.323.332.578.068-.233.06-.492.127-.724-.205-.023-.464.049-.637-.072zm.113-.352h.08-.08zm-6.523-.14c-.246.084 0 .33-.013.492-.026.134-.153.029-.227.084.034.22-.137.261-.285.304-.047.148.108.218.035.359.178.19.317.422.284.689.127.19.093.48.127.725a.643.643 0 0 1 .16.457c.005.091-.088.12-.14.155-.067.085.046.043.046.112l.888-.976a3.163 3.163 0 0 1-.648-1.415l-.115-.071c-.019.133-.012.324-.125.373-.06-.056-.18-.085-.18-.204.033-.077.094-.029.147-.036-.007-.062.007-.127.013-.183.02-.077-.106-.133-.013-.203.08-.008.113.09.172.134l.16-.086c-.047-.161.039-.415-.014-.59-.02-.142-.166-.113-.272-.12zm2.83-.907l.02.014c.02.105.092.267 0 .337-.118.17-.404.133-.444.357-.31.1-.192.508-.291.763-.199.049-.127-.205-.219-.29l-.046.064c-.305-.247-.246.282-.43.324.211.048.39-.079.602-.086.012.028.066.044.047.086h.033c.046-.05.053-.113.046-.184.02-.07.1-.113.158-.07-.018.07.027.127.08.156l-.112.168c-.06.07.014.26-.14.254a.04.04 0 0 1-.046-.056h-.033l.08.154c.094-.008.072-.184.192-.204.107-.028.12-.162.107-.267.138-.129.31-.05.463-.072.04.042.132.057.113.135.06.126-.041.267-.113.372.033.071-.047.127-.047.204-.125.141-.265.077-.43.12.212.154.438.254.715.23.266.024.14-.336.332-.448.113-.014.213.014.338-.022.053-.104.06-.232.08-.35-.114-.058-.073-.178-.08-.276-.068-.085-.06-.238-.192-.253-.027-.078.052-.113.046-.182.199-.078-.106-.205.02-.325-.225-.042-.278-.421-.557-.302-.066-.099-.238-.142-.238-.29.02-.104.246-.061.218-.047-.014-.022-.039-.037-.033-.065-.085-.007-.185 0-.238.05zm-9.445-.444c-.344.844-.326 1.964-.066 2.842.225.91 1.04 1.541 1.464 2.33-.073-.33-.059-.744-.013-1.083.279-1.175.716-2.309.65-3.61-.166.936-.955 1.596-1.048 2.56-.059.396.033.782.08 1.133a1.594 1.594 0 0 1-.178-.605c-.133-1.267-1.094-2.195-.889-3.567zm19.422-.148c.185 1.14-.464 2-.73 2.99-.146.381-.086.866-.303 1.198-.014-.191.085-.373.098-.579.166-1.273-.875-2.026-1.113-3.103-.014.289.005.563.046.824.06 1.344.888 2.435.65 3.835.238-.332.417-.668.702-.992.955-1.056 1.2-2.822.65-4.173zm-9.957-.809c-.556.084-1.08.302-1.478.76a.738.738 0 0 1 .365.182c.033.07-.06.079-.067.12.087.134.093-.028.18-.05.08.086.152.148.265.086.06.105.152.006.225.014.027-.085.14-.155.094-.254.038-.077.059-.204.159-.204-.06.33.231 0 .317.155-.086-.24-.02-.57-.06-.809zm.431-.022l.027.76.272.106c.079-.15.225-.184.318-.31.086-.042.086.071.126.107.053.344-.306.498-.504.639h.08c.205-.225.324.282.536.05.04-.29.425-.254.511-.542-.066.07-.1-.007-.159-.029.019-.099.145-.16.205-.224a3.618 3.618 0 0 0-1.412-.557zm-3.076-.134c-.225.296-.445.62-.602.965-.26.506-.332 1.09-.43 1.668l.43-.015c-.073-.09-.06-.218-.06-.337.1-.227.14-.627.457-.605.153-.036-.007-.162.112-.225.227-.036.286-.26.478-.366.18-.023.218-.288.398-.31-.305-.225-.511-.507-.783-.775zm5.761-.034c-.306.38-.703.78-1.002 1.147.022.048.074.105.081.084.079-.106.02-.373.238-.317.219.078.411.057.65.085.132.077.152.246.272.317.054.062-.02.12-.046.169.025.028.052.055.066.083.067-.063.16-.147.284-.112.127.008.16.197.273.218.053.071-.034.141-.08.17.026.133-.119.175-.066.303a.152.152 0 0 0 .158-.072c.253-.197.054-.45.014-.69-.1-.218-.312-.26-.478-.422a.267.267 0 0 1 .1-.183c-.006-.309-.304-.52-.464-.78zm-6.774-1.049v.07c-.843 1.02-1.312 2.252-1.399 3.631.345.009.721-.014 1.048.015l-.033-.05c.066-1.09.43-2.083 1.132-2.87a5.283 5.283 0 0 1-.748-.796zm4.07-.266c.053.328.039.716.02 1.062.616.048 1.272.315 1.717.745.231-.253.49-.592.748-.745-.729-.614-1.545-.994-2.485-1.062zm-.378-.016l-.034.028c-.915.056-1.676.487-2.386 1.07.272.191.49.485.75.739a2.442 2.442 0 0 1 1.65-.739c-.02-.323-.033-.754.02-1.098zm-8.485-.254a4.138 4.138 0 0 0-.777 1.689c-.257 1.296.478 2.296.637 3.478.213-1.484 1.685-2.42 1.764-3.97-.43.838-1.478 1.324-1.67 2.316 0 .16-.046.316-.08.472l-.032-.036.052-.64c.18-1.148-.45-2.33.106-3.309zm17.294-.154c.49.76.212 1.83.18 2.717.018.43.086.857.058 1.288-.059-.168-.072-.353-.112-.528-.198-.965-1.266-1.436-1.698-2.246.067.275.114.549.207.81.371 1.14 1.484 1.908 1.637 3.145.1-1.181.881-2.125.59-3.413-.151-.646-.404-1.28-.862-1.773zm-13.443-.266l-.032-.107c-1.136 1.31-1.771 2.962-1.858 4.764l1.082.015c-.04-.368.053-.72.093-1.076.23-1.064.662-2.07 1.431-2.859l-.716-.737zm9.705-.121l-.697.795-.112.016c.093 0 .066.112.126.152.291.219.424.53.67.762.092.238.33.394.33.689.346.71.505 1.547.544 2.364a7.704 7.704 0 0 1 1.068-.049l-.034-.034c-.066-1.83-.769-3.394-1.895-4.695zm-8.492.845c.266.197.524.505.742.76.703-.726 1.645-1.169 2.66-1.183a9.649 9.649 0 0 1 0-1.085c-1.288.107-2.44.6-3.402 1.508zm6.822-1.542c-.054.014-.034.105-.015.14.174.015.174.324.379.198l-.047-.218c-.052-.141-.231-.07-.317-.12zm-3.037 0c.053.352.033.774.014 1.12a3.76 3.76 0 0 1 2.294.809.338.338 0 0 1-.128-.269h.028c.013-.126-.166-.182-.107-.308.16.013.278.246.364.373.459-.007.193.569.538.744.08.044-.026.22.1.206.106.092.237.189.218.338.04.252.231-.079.338.084.094.078-.065.126-.046.218.059.028.113-.063.16.014.02.085-.041.12-.081.169-.04.148.126.064.173.134.073.169.132.422.013.612.165.19-.026.387-.06.57-.119.12-.14.402-.364.338-.053.098.032.21-.02.288l.398.021c-.225-.339.066-.66.159-.964.046-.021.106-.126.146-.021-.02.14-.033.295-.047.41.1.16.06.386.093.575l1.02-.02c-.071-.718-.212-1.407-.496-2.027-.074.028-.16.084-.239.035-.113-.163-.206-.36-.364-.493-.133 0-.226-.113-.331-.183-.232.008-.146-.351-.372-.304-.12-.062-.205-.125-.239-.273-.008-.168-.02-.38-.173-.507-.085-.049-.164.013-.225.07-.126.086-.178-.062-.172-.169-.14-.112.006-.238-.067-.372-.198-.169-.105-.486-.378-.627a5.627 5.627 0 0 0-1.385-.47c-.25-.043-.523-.05-.762-.12zm-8.465.83c-.536.838-.1 2-.252 2.992.193-.408.564-.795.889-1.084.75-.514 1.42-1.33 1.445-2.245-.398 1.083-1.712 1.225-2.035 2.379h-.033c.484-.957.212-2.308 1.133-3.02-.484.148-.894.529-1.147.978zm15.386-1.111c.703.492.656 1.4.908 2.14.066.309.245.59.264.9-.377-1.161-1.65-1.289-2.114-2.385l.146.64c.358 1.246 1.756 1.548 2.287 2.675-.165-.817.125-1.668-.106-2.47-.193-.691-.729-1.296-1.385-1.5zM50.953.955l-.477.225c-.053.03-.22-.063-.192.085.092.064.185.133.298.147.298-.14.657.092.908-.203-.073-.211-.338-.218-.537-.254zM44.728.723c-.63.268-1.312.486-1.783 1.112-.364.506-.477 1.112-.662 1.69l.556-.508c.85-.626 1.067-1.647 1.889-2.294zM55.115.618l.51.542c.518.844 1.241 1.68 1.957 2.216-.153-.338-.186-.732-.346-1.07-.317-.943-1.305-1.4-2.12-1.688zM45.332 2.34l.782.796c.981-1.012 2.24-1.59 3.626-1.641-.053-.35-.033-.753-.014-1.11-1.683.098-3.148.774-4.394 1.955zM50.138.35c.026.281.026.677 0 1 .006-.05.053-.05.08-.07.092.035.092.153.066.239h-.021c.477-.036.936.09 1.373.232.457.063.854.647 1.305.337.127.148.345.007.41.239.174.037.266.22.386.338-.013.17.132.247.186.373v-.021c.152-.289.39-.542.656-.69A6.467 6.467 0 0 0 51.204.504C50.86.427 50.476.448 50.138.35zm6.09 3.631c1.347 2.357 1.068 5.948-.556 8.073-1.795 2.52-4.759 3.61-7.682 2.751-2.658-.738-4.825-3.434-5.071-6.348-.332-3.089 1.02-5.905 3.48-7.445 1.897-1.239 4.819-1.38 6.795-.204 1.2.619 2.406 1.886 3.035 3.173zM119 5a42.422 42.422 0 0 0 7-.826V0h-7v5zm12.609.789c-1.096.552-2.314 1.029-3.609 1.438V12a17.785 17.785 0 0 0 5-5.646V5c-.443.276-.903.541-1.391.789M126 12.357c0-.006-.003-.011-.003-.016V7a48.61 48.61 0 0 1-6.997.732V14a23.085 23.085 0 0 0 7-1.643M128 0v4c2.062-.833 3.777-1.884 5-3.043V0h-5zm-12 0h-7v4.117c2.132.476 4.5.785 7 .883V0zm-10 4V0h-5v.983c.752.692 1.679 1.353 2.754 1.951.69.384 1.444.74 2.246 1.066m10 3.89c-2.464-.106-4.822-.403-7-.89v6a19.264 19.264 0 0 0 7 2V7.89zM106 11V6.216c-1.87-.592-3.55-1.339-5-2.216v1.426A18.505 18.505 0 0 0 106 11m2.428 20.652v-3.083H115v-3.08h-6.573v-3.083H115v-5.225c-5.588-.44-10.55-3.132-14-7.181v27h14v-5.348h-6.572zM119 17.191v5.222h6.293v3.082H119v3.077h6.294v3.082H119V37h14V10c-3.45 4.052-8.41 6.747-14 7.191" fill="#E36F1E" fill-rule="evenodd"/></svg>