<svg width="141" height="40" viewBox="0 0 141 40" xmlns="http://www.w3.org/2000/svg"><title>UN Logo Dark</title><path d="M74.565 18.462c-4.742 0-7.642-2.727-7.642-8.076V0h3.885v10.282c0 2.96 1.437 4.492 3.807 4.492 2.371 0 3.81-1.48 3.81-4.362V0h3.883v10.256c0 5.505-3 8.206-7.743 8.206m22.802 0L88.562 6.725v11.737h-3.947V0h3.688l8.519 11.367V0h3.947v18.462zM21.46 40h-3.494l-4.12-11.961L9.726 40H6.232L0 21.591h4.303l3.78 12.377 4.094-12.43h3.442l4.094 12.43 3.781-12.377h4.198zm20.532-9.232c0-3.06-2.274-5.61-5.48-5.61-3.205 0-5.427 2.499-5.427 5.559v.051c0 3.06 2.274 5.61 5.48 5.61 3.204 0 5.427-2.499 5.427-5.56v-.05zM36.512 40c-5.582 0-9.589-4.106-9.589-9.182v-.05c0-5.075 4.058-9.23 9.641-9.23 5.584 0 9.59 4.104 9.59 9.179v.051c0 5.075-4.058 9.232-9.641 9.232zm25.005 0V27.946l-4.979 7.886h-.1l-4.93-7.807V40h-3.816V21.538h4.196l4.65 7.805 4.651-7.805h4.196V40zm7.713 0V21.538h13.717v3.612h-9.742v3.745h8.57v3.614h-8.57v3.877h9.872V40zm28.138 0l-8.805-11.738V40h-3.948V21.538h3.688l8.52 11.366V21.538h3.946V40zM57.15 16.852c-1.22-.562-2.633-1.19-4.06-.657a4.084 4.084 0 0 0-2.385 0c-1.257.578-2.97 1.451-4.297.484.25.304.52.448.806.658.858.562 2.092.505 2.977.05.814-.347 1.435-1.38 2.47-1.054-.879.447-1.684.982-2.413 1.746l.443.383c.64-.859 1.505-1.573 2.434-1.992.9.44 1.72 1.198 2.398 1.957l.443-.383c-.712-.7-1.542-1.264-2.398-1.711.221-.058.492-.043.72-.022.928.412 1.642 1.234 2.692 1.357 1.114.18 2.106-.275 2.791-1.097l-.528.28c-.622.284-1.456.21-2.092 0zm-10.278-3.377c.55.649.57 1.508 1.335 2.04.293.262.685.313 1.014.45-.365.035-.701-.115-1.064-.137-1.23-.152-2.635.007-3.534-1.003.407.721 1.127 1.35 1.885 1.594 1.427.548 2.72-.258 4.082-.382-1.584-.073-2.44-1.819-3.718-2.562zm12.385-.088c-.82.542-1.528 1.466-2.277 2.058-.414.318-.907.412-1.392.555 1.07.081 1.963.593 3.084.521a3.424 3.424 0 0 0 2.862-1.833c-.828.995-2.155.937-3.376 1.053-.407.051-.808.173-1.214.173.014-.014.028-.043.05-.036 1.336-.115 1.713-1.58 2.263-2.49zm-6.067-.866l.07.123-.014.917c.265-.1.628-.094.872-.137-.144-.144-.356-.13-.414-.346-.1-.145.042-.296.034-.42-.17-.08-.427.024-.548-.137zm-4.348-.259l-.793.83c1.357 1.227 2.977 1.89 4.798 2.006l-.05-.086c.014-.362-.028-.745.036-1.09l-.015.022c-1.521-.043-2.906-.614-3.976-1.682zm8.431-.072a2.085 2.085 0 0 1-.6.555c-.743.26-.813 1.097-1.543 1.373-.285.114-.448-.26-.706-.318-.386.064-.785.172-1.178.107v1.213l.05-.035a7.378 7.378 0 0 0 4.798-2.043c-.294-.283-.607-.572-.82-.852zm-7.01-.643c0 .123.164.13.1.281-.244.153-.536.044-.772.225-.215.116-.392-.137-.515-.123 1.043.909 2.265 1.514 3.67 1.58l.087.051c-.058-.346-.036-.75-.015-1.112-.956.058-1.82-.346-2.556-.902zm-.122-.137l.085.108-.085-.108zm-4.796-.238l.206.534c.2 1.198.294 2.52 1.371 3.277l-.015.015c-.349-.152-.613-.448-.928-.643-1.013-.664-2.412-.96-2.983-2.23.156.93.786 1.761 1.54 2.338.908.809 2.172.744 3.278 1.069-.407-.317-.635-.68-.82-1.125-.408-1.135-.765-2.318-1.65-3.235zm10.863-.036v.014c-.534.383.257.397.273.728-.08.16-.365.32-.186.507.056.064-.03.115-.05.173l.735-.628c-.093.065-.208.023-.257-.066.008-.324-.378-.468-.515-.728zm4.576-.086l-.6.793c-.805 1.127-.713 2.665-1.833 3.624.577-.188 1.213-.267 1.812-.397 1.35-.347 2.771-1.69 2.963-3.09-.243.585-.749 1.018-1.263 1.357-.884.42-1.785.895-2.535 1.559h-.085l.05-.071c1.292-.867.943-2.542 1.491-3.775zm-9.837-.918c-.227.282-.5.55-.77.78h.05c.629.55 1.42.931 2.162 1.054-.271-.036-.377-.303-.499-.505-.07-.167.179-.202.136-.375a.537.537 0 0 1 .414-.26c-.086.014-.173.028-.257.049-.45-.15-.906-.354-1.236-.743zm3.648-.122c-.078.042-.143.042-.184.137-.093.123-.208-.006-.293-.052.028.037.092.124.013.175-.093.1-.178-.045-.27-.072-.05.316-.165-.087-.329-.014-.071-.181-.193.035-.307.014-.086.072-.093.281-.257.26-.036.1-.17.063-.186.137.079.093.186.05.271.034.137-.121.307-.042.465-.064-.014.261.285.064.378.225.107-.007.107-.117.15-.195a.91.91 0 0 0 .571-.348c.029-.063.071-.202-.022-.237zm-.406-.173c.085-.117.272-.095.307-.224-.158-.029-.329.085-.307.224zm-2.213-.78l-.686.78c.393.304.85.54 1.358.62-.008-.137-.008-.273.063-.382.07-.043.178.02.243-.05-.008-.066-.05-.066-.086-.124-.043-.1 0-.193.013-.259.029-.05-.056-.165.037-.203-.221.109-.421-.042-.614-.108-.108-.086-.3-.107-.328-.274zm4.59.014c-.207-.158-.165.144-.343.124-.064-.015-.078-.096-.085-.161-.015.167-.142.289-.236.42-.33-.094-.243.376-.571.274.043.13.186-.02.257.022.058-.03.041-.088.071-.123.037-.136.2-.188.329-.136.071.114.092.26.085.396-.077.057-.077.152-.07.245-.101.166-.058.52-.357.484a3.132 3.132 0 0 0-1-.21v.073c.229.086.484.086.671.26.2-.022.45.03.6-.087a.75.75 0 0 1 .17-.382c.129.013.1.187.157.275.379-.485.707-.946.837-1.539-.187-.013-.322.093-.515.065zm-11.907-.065c.085.477-.064.895-.136 1.328-.244.83-.122 1.806.358 2.483-.158-.079-.258-.266-.358-.432-.592-1.148-2.084-1.798-2.213-3.176-.007.499-.007 1.025.142 1.472.415 1.545 2.1 2.34 3.235 3.119-.806-1.408-.378-3.321-1.028-4.794zm10.007-.02c-.155.223.15.209.173.396.036 0 .077.015.1-.015-.023-.08-.014-.166-.085-.224-.123 0-.123-.157-.188-.157zm6.803-.124c-.678 1.48-.185 3.443-1.012 4.85l.136-.115c1.605-.887 3.54-2.382 3.218-4.563a2.146 2.146 0 0 1-.256.818c-.628.988-1.7 1.796-2.23 2.821-.011.037-.061.058-.083.022l.107-.137c.756-1.105.079-2.463.12-3.696zm-9.85-.137c-.022.101-.1.18-.157.26.1-.044.157-.195.27-.188l-.113-.072zm-1.2-.296l.065.108c.085.36.3.664.478.99l.328-.347c-.007-.042.015-.094-.013-.123-.066-.087-.022-.247-.107-.296-.029.08.063.123.02.188-.106-.045-.22-.094-.278-.224.022-.167-.1-.044-.187-.122-.005-.18-.227-.066-.306-.174zm-3.105-.461l.036.05c.035.52.18 1.025.22 1.522.065-.043.023-.158.108-.158.03-.244.064-.527.221-.745.228-.006.237-.317.479-.294.057.042.136.1.156.172-.12-.144-.127-.374-.07-.547-.357.05-.786.05-1.15 0zm-1.506.013c.078 1.842.75 3.45 1.934 4.815.265-.281.557-.599.843-.83-.144-.094-.235-.26-.378-.382-.178-.037-.3-.21-.343-.362.007.022-.022.037-.036.05-.164.08-.214-.122-.322-.186-.099-.052-.021-.282-.192-.195-.1-.166-.285-.153-.357-.346l-.071.121c-.13-.006-.22-.166-.293-.245-.263.079-.157-.289-.307-.41-.057-.232.014-.449.135-.63.079-.071.229-.014.257.037.138.05.05-.108.123-.138.192-.165.285.067.392.188a4.256 4.256 0 0 1-.236-1.5c-.364.05-.778.035-1.15.013zm3-.036c.077.261.163.542.098.831 0-.13.278-.26.057-.375.086-.132.021-.406.185-.42-.127.029-.227.029-.34-.036zm8.894-.015c.04.145-.044.282-.036.434-.151.253.191.317.098.555-.062.051-.128.044-.206.015a4.556 4.556 0 0 1-1.028 1.92h-.049c.127.08.22.26.363.296v-.1c.029-.023.043-.073.086-.051.278.087.3.475.322.656.727-.772 1.177-1.688 1.405-2.685.08-.333.036-.736.171-1.025-.37.023-.777.043-1.126-.015zm1.47-.02l.035.07a6.185 6.185 0 0 1-1.649 3.95c.27.245.578.564.829.83.948-1.105 1.598-2.346 1.827-3.754.079-.36.056-.75.156-1.097-.349.1-.763.036-1.148.059l-.05-.059zm-2.556-.016l.192.224c-.006.253.336.332.357.593.073-.24.064-.505.137-.743-.221-.023-.5.05-.686-.074zm.122-.36h.085-.085zm-7.025-.144c-.265.086 0 .338-.014.504-.029.138-.165.03-.245.087.037.225-.148.268-.306.31-.05.153.116.224.036.37.192.194.342.432.307.706.137.195.1.492.137.744a.64.64 0 0 1 .17.469c.007.093-.093.122-.15.158-.071.088.05.045.05.116l.957-1.002a3.176 3.176 0 0 1-.698-1.451l-.123-.073c-.021.137-.014.332-.135.383-.064-.058-.193-.087-.193-.21.035-.078.1-.03.157-.036-.008-.064.007-.13.014-.188.022-.079-.114-.136-.014-.209.085-.007.122.094.186.138l.171-.088c-.05-.165.042-.426-.015-.606-.02-.144-.178-.115-.292-.122zm3.048-.93l.02.014c.023.108.1.274 0 .346-.126.173-.434.136-.477.366-.334.103-.207.52-.314.782-.214.05-.136-.21-.235-.298l-.05.066c-.328-.253-.265.29-.464.332.229.05.42-.08.65-.087.012.029.07.044.05.087h.035c.05-.05.057-.115.05-.188.021-.072.108-.116.17-.072-.02.072.03.13.087.16l-.122.173c-.064.071.015.267-.15.26-.035.007-.065-.023-.05-.058h-.035l.086.159c.1-.008.077-.189.206-.21.115-.028.13-.166.115-.274.15-.132.335-.05.5-.073.042.043.142.058.121.138.064.129-.044.274-.121.382.035.072-.051.13-.051.208-.134.146-.285.08-.463.124.228.157.471.26.77.237.286.023.15-.346.357-.46.122-.016.23.014.364-.023.057-.107.064-.238.086-.36-.122-.059-.079-.181-.086-.282-.072-.088-.064-.245-.207-.26-.028-.08.056-.116.05-.187.214-.08-.114-.21.022-.332-.243-.043-.3-.433-.6-.31-.07-.102-.257-.146-.257-.297.021-.107.265-.064.235-.05-.015-.022-.042-.037-.035-.066-.092-.007-.2 0-.257.052zM42.59 6.003c-.371.866-.35 2.014-.072 2.915.243.933 1.121 1.58 1.578 2.39-.079-.338-.064-.764-.014-1.111.3-1.205.77-2.368.699-3.703-.179.96-1.028 1.637-1.128 2.627-.064.405.036.801.085 1.16a1.578 1.578 0 0 1-.191-.62c-.143-1.298-1.178-2.25-.957-3.658zm20.916-.152c.199 1.17-.5 2.051-.787 3.067-.156.39-.092.888-.326 1.228-.015-.195.091-.382.106-.593.178-1.305-.943-2.078-1.2-3.182-.014.295.007.577.05.845.065 1.378.957 2.497.7 3.933.257-.34.45-.686.757-1.018 1.028-1.083 1.292-2.895.7-4.28zm-10.723-.83c-.599.087-1.163.31-1.592.78a.81.81 0 0 1 .393.187c.036.072-.064.08-.071.123.093.137.1-.029.193-.051.086.088.163.152.285.088.064.107.164.005.242.014.03-.087.15-.16.101-.26.042-.08.064-.21.172-.21-.065.34.25 0 .342.16-.093-.246-.022-.585-.065-.83zM53.246 5l.029.78.293.108c.085-.153.242-.188.342-.317.093-.044.093.072.136.109.058.353-.329.511-.542.655h.085c.221-.23.35.29.578.052.043-.297.458-.26.55-.556-.071.071-.107-.008-.17-.03.02-.101.155-.165.22-.23a4.011 4.011 0 0 0-1.52-.57zm-3.313-.137a5.327 5.327 0 0 0-.648.99c-.28.519-.357 1.117-.464 1.71l.464-.015c-.079-.093-.064-.223-.064-.346.106-.232.15-.643.492-.62.164-.037-.008-.166.12-.232.244-.036.308-.267.515-.375.193-.023.235-.295.428-.317-.328-.23-.55-.52-.843-.795zm6.205-.036c-.33.39-.758.8-1.079 1.177.023.05.079.108.087.086.085-.109.02-.382.256-.325.236.08.443.058.7.087.142.08.164.252.293.326.058.063-.022.122-.05.172.028.03.056.057.071.086.072-.064.172-.15.307-.115.136.009.171.202.293.224.057.072-.036.144-.086.173.028.138-.128.18-.071.311a.167.167 0 0 0 .17-.073c.273-.202.059-.461.015-.707-.107-.224-.336-.268-.514-.433a.271.271 0 0 1 .107-.188c-.006-.317-.328-.534-.5-.8zm-7.296-1.075v.072c-.907 1.046-1.413 2.31-1.506 3.724.372.009.777-.015 1.128.015l-.035-.05c.07-1.119.463-2.138 1.22-2.945a5.537 5.537 0 0 1-.807-.816zm4.383-.274c.058.337.042.735.021 1.09.664.05 1.371.324 1.85.765.25-.26.527-.608.806-.765-.785-.63-1.664-1.019-2.677-1.09zm-.407-.015l-.036.029c-.985.057-1.805.499-2.57 1.097.293.196.528.498.807.758a2.691 2.691 0 0 1 1.778-.758c-.022-.332-.036-.774.021-1.126zm-9.137-.26a4.154 4.154 0 0 0-.837 1.731c-.277 1.33.515 2.355.686 3.568.23-1.522 1.815-2.483 1.9-4.072-.464.86-1.592 1.357-1.798 2.375 0 .165-.05.325-.086.484l-.036-.037.057-.656c.193-1.177-.486-2.39.114-3.394zm18.624-.16c.528.781.229 1.878.193 2.788.02.44.093.88.064 1.32-.064-.171-.079-.361-.121-.54-.213-.99-1.364-1.474-1.828-2.305.071.283.122.564.222.831.4 1.17 1.598 1.957 1.763 3.227.107-1.212.95-2.18.635-3.501-.163-.663-.435-1.314-.928-1.82zm-14.477-.272l-.035-.11c-1.222 1.344-1.907 3.039-2 4.887l1.164.015c-.042-.377.057-.738.101-1.104.248-1.09.713-2.122 1.541-2.931l-.771-.757zm10.451-.124l-.75.816-.12.015c.1 0 .07.116.134.157.314.224.457.543.722.78.1.246.356.405.356.708.372.73.543 1.587.586 2.425a8.708 8.708 0 0 1 1.15-.05l-.037-.036c-.071-1.877-.827-3.48-2.04-4.815zm-9.145.867c.286.202.565.518.799.779a4.167 4.167 0 0 1 2.864-1.213 9.426 9.426 0 0 1 0-1.113c-1.386.11-2.628.615-3.663 1.547zm7.347-1.581c-.058.014-.037.107-.016.144.187.015.187.331.408.202l-.05-.223c-.056-.146-.25-.072-.342-.123zm-3.27 0c.056.36.035.793.014 1.147a4.177 4.177 0 0 1 2.47.83c-.066-.035-.15-.18-.137-.275h.03c.014-.13-.179-.186-.115-.316.173.013.3.252.392.383.494-.008.208.583.579.763.086.045-.028.225.108.21.115.095.256.195.235.348.043.258.249-.081.364.086.101.08-.07.13-.05.224.064.028.122-.065.172.014.021.087-.044.122-.087.173-.042.151.136.065.187.138.079.173.142.432.014.627.178.195-.029.397-.065.585-.128.123-.15.412-.392.347-.057.1.035.216-.022.295l.429.021c-.242-.347.071-.677.171-.988.05-.022.115-.13.158-.022-.022.144-.035.302-.051.42.107.164.064.396.1.59l1.1-.02c-.078-.736-.23-1.444-.536-2.08-.079.03-.171.087-.256.036-.122-.166-.223-.368-.392-.504-.144 0-.244-.117-.358-.188-.25.008-.157-.361-.4-.312-.13-.064-.221-.128-.257-.28-.008-.173-.022-.39-.187-.52-.091-.05-.177.013-.242.072-.135.087-.191-.065-.185-.174-.15-.114.007-.244-.072-.381-.214-.174-.114-.498-.407-.644-.47-.23-.97-.374-1.492-.482-.27-.044-.563-.051-.82-.123zm-9.116.85c-.578.86-.109 2.051-.273 3.07.209-.42.608-.816.958-1.113.807-.527 1.53-1.363 1.556-2.302-.428 1.111-1.843 1.256-2.191 2.44h-.036c.521-.982.23-2.368 1.22-3.097-.52.152-.962.542-1.234 1.003zm16.568-1.139c.758.505.708 1.436.978 2.194.071.318.264.606.284.924-.405-1.19-1.776-1.322-2.276-2.447l.158.657c.385 1.278 1.89 1.588 2.462 2.744-.177-.838.136-1.711-.113-2.534-.208-.708-.785-1.329-1.493-1.538zM54.103.98l-.514.23c-.057.03-.236-.064-.206.088.098.065.2.136.32.15.321-.143.708.095.979-.208-.079-.217-.364-.224-.578-.26zM47.4.74c-.677.275-1.413.5-1.92 1.14-.392.52-.513 1.142-.713 1.734l.6-.52c.914-.643 1.149-1.69 2.033-2.354zM58.586.633l.55.557c.556.866 1.335 1.723 2.106 2.273-.165-.347-.2-.752-.372-1.099-.342-.966-1.406-1.435-2.284-1.73zM48.049 2.401l.843.816a5.791 5.791 0 0 1 3.905-1.683c-.057-.36-.036-.772-.015-1.139-1.813.102-3.39.795-4.733 2.006zM53.225.36a6.27 6.27 0 0 1 0 1.026c.007-.052.058-.052.086-.073.1.037.1.158.072.245h-.023c.514-.036 1.008.094 1.479.238.492.066.92.665 1.405.347.137.151.372.007.442.245.187.037.286.225.415.346-.013.174.143.254.2.383v-.022c.165-.296.421-.556.707-.707a7.076 7.076 0 0 0-3.634-1.87c-.37-.079-.785-.058-1.149-.158zm6.56 3.724c1.45 2.418 1.15 6.1-.6 8.28-1.933 2.585-5.125 3.703-8.273 2.822-2.863-.757-5.196-3.522-5.46-6.512-.358-3.167 1.098-6.056 3.747-7.635 2.042-1.27 5.19-1.415 7.318-.21 1.291.635 2.59 1.935 3.268 3.255zm65.6 1.301a38.692 38.692 0 0 0 6.923-.89V0h-6.923v5.385zm13.831.167c-1.152.598-2.432 1.113-3.794 1.556v5.16a19.067 19.067 0 0 0 5.257-6.104V4.7c-.465.298-.95.585-1.463.852m-6.908 8.028c0-.007-.003-.013-.003-.018v-5.87c-2.16.438-4.488.71-6.92.804v6.889a20.956 20.956 0 0 0 6.923-1.806M135.385 0v3.846c2.22-.8 4.067-1.811 5.384-2.926V0h-5.384zm-13.077 0h-6.923v4.433c2.108.513 4.45.846 6.923.952V0zm-10 3.846V0h-5.385v.945c.81.666 1.808 1.302 2.965 1.876.744.37 1.556.712 2.42 1.025m10 4.789c-2.437-.113-4.77-.428-6.923-.943v6.346a18.126 18.126 0 0 0 6.923 2.116v-7.52zm-10 3.673V7.05c-2.015-.651-3.824-1.472-5.385-2.436v1.567a20.202 20.202 0 0 0 5.385 6.126m2.369 21.286v-3.25h6.861v-3.246h-6.861v-3.25h6.861v-5.508c-5.833-.465-11.013-3.302-14.615-7.57v28.462h14.615v-5.638h-6.86zm10.708-15.243v5.504h6.57v3.249h-6.57v3.244h6.57v3.249h-6.57v5.635H140V10.769c-3.601 4.271-8.78 7.112-14.615 7.58" fill="#FFF" fill-rule="evenodd"/></svg>